<mxfile host="Electron" agent="Mozilla/5.0 (Windows NT 10.0; Win64; x64) AppleWebKit/537.36 (KHTML, like Gecko) draw.io/28.0.6 Chrome/138.0.7204.100 Electron/37.2.3 Safari/537.36" version="28.0.6">
  <diagram name="Page-1" id="3YzN63Yp_Hm-KrTAqVmw">
    <mxGraphModel dx="1423" dy="856" grid="0" gridSize="10" guides="1" tooltips="1" connect="1" arrows="1" fold="1" page="1" pageScale="1" pageWidth="1169" pageHeight="1654" background="#FFFFCC" math="0" shadow="1">
      <root>
        <mxCell id="0" />
        <mxCell id="1" parent="0" />
        <mxCell id="3tetouzSUAAUPvZ9LY1E-3" value="" style="edgeStyle=orthogonalEdgeStyle;rounded=0;orthogonalLoop=1;jettySize=auto;html=1;" edge="1" parent="1" source="3tetouzSUAAUPvZ9LY1E-1" target="3tetouzSUAAUPvZ9LY1E-2">
          <mxGeometry relative="1" as="geometry" />
        </mxCell>
        <mxCell id="3tetouzSUAAUPvZ9LY1E-1" value="Start" style="strokeWidth=2;html=1;shape=mxgraph.flowchart.start_1;whiteSpace=wrap;" vertex="1" parent="1">
          <mxGeometry x="480" y="10" width="120" height="70" as="geometry" />
        </mxCell>
        <mxCell id="3tetouzSUAAUPvZ9LY1E-5" value="" style="edgeStyle=orthogonalEdgeStyle;rounded=0;orthogonalLoop=1;jettySize=auto;html=1;" edge="1" parent="1" source="3tetouzSUAAUPvZ9LY1E-2" target="3tetouzSUAAUPvZ9LY1E-4">
          <mxGeometry relative="1" as="geometry" />
        </mxCell>
        <mxCell id="3tetouzSUAAUPvZ9LY1E-2" value="Genarate a random word" style="rounded=1;whiteSpace=wrap;html=1;strokeWidth=2;" vertex="1" parent="1">
          <mxGeometry x="480" y="120" width="120" height="60" as="geometry" />
        </mxCell>
        <mxCell id="3tetouzSUAAUPvZ9LY1E-7" value="" style="edgeStyle=orthogonalEdgeStyle;rounded=0;orthogonalLoop=1;jettySize=auto;html=1;" edge="1" parent="1" source="3tetouzSUAAUPvZ9LY1E-4" target="3tetouzSUAAUPvZ9LY1E-6">
          <mxGeometry relative="1" as="geometry" />
        </mxCell>
        <mxCell id="3tetouzSUAAUPvZ9LY1E-4" value="Genarate&amp;nbsp;&lt;span style=&quot;background-color: transparent; color: light-dark(rgb(0, 0, 0), rgb(255, 255, 255));&quot;&gt;as many blank spaces as in the word&amp;nbsp;&lt;/span&gt;" style="whiteSpace=wrap;html=1;rounded=1;strokeWidth=2;" vertex="1" parent="1">
          <mxGeometry x="480" y="240" width="120" height="60" as="geometry" />
        </mxCell>
        <mxCell id="3tetouzSUAAUPvZ9LY1E-9" value="" style="edgeStyle=orthogonalEdgeStyle;rounded=0;orthogonalLoop=1;jettySize=auto;html=1;" edge="1" parent="1" source="3tetouzSUAAUPvZ9LY1E-6" target="3tetouzSUAAUPvZ9LY1E-8">
          <mxGeometry relative="1" as="geometry">
            <Array as="points">
              <mxPoint x="423" y="420" />
              <mxPoint x="423" y="430" />
            </Array>
          </mxGeometry>
        </mxCell>
        <mxCell id="3tetouzSUAAUPvZ9LY1E-12" value="" style="edgeStyle=orthogonalEdgeStyle;rounded=0;orthogonalLoop=1;jettySize=auto;html=1;" edge="1" parent="1" source="3tetouzSUAAUPvZ9LY1E-6" target="3tetouzSUAAUPvZ9LY1E-11">
          <mxGeometry relative="1" as="geometry">
            <Array as="points">
              <mxPoint x="657" y="420" />
              <mxPoint x="657" y="430" />
            </Array>
          </mxGeometry>
        </mxCell>
        <mxCell id="3tetouzSUAAUPvZ9LY1E-6" value="Ask the user to guess a letter" style="rhombus;whiteSpace=wrap;html=1;rounded=1;strokeWidth=2;" vertex="1" parent="1">
          <mxGeometry x="485.63" y="340" width="108.75" height="90" as="geometry" />
        </mxCell>
        <mxCell id="3tetouzSUAAUPvZ9LY1E-15" value="" style="edgeStyle=orthogonalEdgeStyle;rounded=0;orthogonalLoop=1;jettySize=auto;html=1;" edge="1" parent="1" source="3tetouzSUAAUPvZ9LY1E-8">
          <mxGeometry relative="1" as="geometry">
            <mxPoint x="300" y="600" as="targetPoint" />
            <Array as="points">
              <mxPoint x="360" y="530" />
              <mxPoint x="301" y="530" />
              <mxPoint x="301" y="600" />
            </Array>
          </mxGeometry>
        </mxCell>
        <mxCell id="3tetouzSUAAUPvZ9LY1E-8" value="print the letter in respective blank space" style="whiteSpace=wrap;html=1;rounded=1;strokeWidth=2;" vertex="1" parent="1">
          <mxGeometry x="310.005" y="400" width="120" height="60" as="geometry" />
        </mxCell>
        <mxCell id="3tetouzSUAAUPvZ9LY1E-10" value="&lt;b&gt;Correct&lt;/b&gt;" style="text;html=1;align=center;verticalAlign=middle;resizable=0;points=[];autosize=1;strokeColor=none;fillColor=none;" vertex="1" parent="1">
          <mxGeometry x="440" y="400" width="70" height="30" as="geometry" />
        </mxCell>
        <mxCell id="3tetouzSUAAUPvZ9LY1E-17" value="" style="edgeStyle=orthogonalEdgeStyle;rounded=0;orthogonalLoop=1;jettySize=auto;html=1;" edge="1" parent="1" source="3tetouzSUAAUPvZ9LY1E-11">
          <mxGeometry relative="1" as="geometry">
            <mxPoint x="780" y="600" as="targetPoint" />
            <Array as="points">
              <mxPoint x="720" y="530" />
              <mxPoint x="781" y="530" />
              <mxPoint x="781" y="600" />
            </Array>
          </mxGeometry>
        </mxCell>
        <mxCell id="3tetouzSUAAUPvZ9LY1E-11" value="User looses a life&lt;div&gt;and hang man draw procides&lt;/div&gt;" style="whiteSpace=wrap;html=1;rounded=1;strokeWidth=2;" vertex="1" parent="1">
          <mxGeometry x="649.995" y="400" width="120" height="60" as="geometry" />
        </mxCell>
        <mxCell id="3tetouzSUAAUPvZ9LY1E-13" value="&lt;b&gt;Wrong&lt;/b&gt;" style="text;html=1;align=center;verticalAlign=middle;resizable=0;points=[];autosize=1;strokeColor=none;fillColor=none;" vertex="1" parent="1">
          <mxGeometry x="585" y="400" width="60" height="30" as="geometry" />
        </mxCell>
        <mxCell id="3tetouzSUAAUPvZ9LY1E-21" style="edgeStyle=orthogonalEdgeStyle;rounded=0;orthogonalLoop=1;jettySize=auto;html=1;exitX=0;exitY=0.5;exitDx=0;exitDy=0;exitPerimeter=0;" edge="1" parent="1" source="3tetouzSUAAUPvZ9LY1E-27" target="3tetouzSUAAUPvZ9LY1E-6">
          <mxGeometry relative="1" as="geometry">
            <mxPoint x="190" y="170" as="targetPoint" />
            <mxPoint x="239.99500000000012" y="630" as="sourcePoint" />
            <Array as="points">
              <mxPoint x="191" y="650" />
              <mxPoint x="191" y="385" />
            </Array>
          </mxGeometry>
        </mxCell>
        <mxCell id="3tetouzSUAAUPvZ9LY1E-22" style="edgeStyle=orthogonalEdgeStyle;rounded=0;orthogonalLoop=1;jettySize=auto;html=1;exitX=1;exitY=0.5;exitDx=0;exitDy=0;exitPerimeter=0;" edge="1" parent="1" source="3tetouzSUAAUPvZ9LY1E-28" target="3tetouzSUAAUPvZ9LY1E-6">
          <mxGeometry relative="1" as="geometry">
            <mxPoint x="890" y="270" as="targetPoint" />
            <mxPoint x="840.0050000000001" y="630" as="sourcePoint" />
            <Array as="points">
              <mxPoint x="891" y="650" />
              <mxPoint x="891" y="385" />
            </Array>
          </mxGeometry>
        </mxCell>
        <mxCell id="3tetouzSUAAUPvZ9LY1E-24" value="&lt;b&gt;No&lt;/b&gt;" style="text;html=1;align=center;verticalAlign=middle;resizable=0;points=[];autosize=1;strokeColor=none;fillColor=none;" vertex="1" parent="1">
          <mxGeometry x="190" y="620" width="40" height="30" as="geometry" />
        </mxCell>
        <mxCell id="3tetouzSUAAUPvZ9LY1E-25" value="&lt;b&gt;No&lt;/b&gt;" style="text;html=1;align=center;verticalAlign=middle;resizable=0;points=[];autosize=1;strokeColor=none;fillColor=none;" vertex="1" parent="1">
          <mxGeometry x="850" y="620" width="40" height="30" as="geometry" />
        </mxCell>
        <mxCell id="3tetouzSUAAUPvZ9LY1E-34" style="edgeStyle=orthogonalEdgeStyle;rounded=0;orthogonalLoop=1;jettySize=auto;html=1;entryX=0;entryY=0.5;entryDx=0;entryDy=0;" edge="1" parent="1" source="3tetouzSUAAUPvZ9LY1E-27" target="3tetouzSUAAUPvZ9LY1E-29">
          <mxGeometry relative="1" as="geometry" />
        </mxCell>
        <mxCell id="3tetouzSUAAUPvZ9LY1E-27" value="All the spaces are printed?" style="strokeWidth=2;html=1;shape=mxgraph.flowchart.decision;whiteSpace=wrap;" vertex="1" parent="1">
          <mxGeometry x="230" y="600" width="140" height="100" as="geometry" />
        </mxCell>
        <mxCell id="3tetouzSUAAUPvZ9LY1E-31" style="edgeStyle=orthogonalEdgeStyle;rounded=0;orthogonalLoop=1;jettySize=auto;html=1;entryX=1;entryY=0.5;entryDx=0;entryDy=0;" edge="1" parent="1" source="3tetouzSUAAUPvZ9LY1E-28" target="3tetouzSUAAUPvZ9LY1E-29">
          <mxGeometry relative="1" as="geometry" />
        </mxCell>
        <mxCell id="3tetouzSUAAUPvZ9LY1E-28" value="All the lifes are exhosted?" style="strokeWidth=2;html=1;shape=mxgraph.flowchart.decision;whiteSpace=wrap;" vertex="1" parent="1">
          <mxGeometry x="720" y="600" width="130" height="100" as="geometry" />
        </mxCell>
        <mxCell id="3tetouzSUAAUPvZ9LY1E-29" value="Game Over" style="whiteSpace=wrap;html=1;strokeWidth=2;" vertex="1" parent="1">
          <mxGeometry x="474.38" y="720" width="120" height="60" as="geometry" />
        </mxCell>
        <mxCell id="3tetouzSUAAUPvZ9LY1E-35" value="&lt;b&gt;Yes&lt;/b&gt;" style="text;html=1;align=center;verticalAlign=middle;resizable=0;points=[];autosize=1;strokeColor=none;fillColor=none;" vertex="1" parent="1">
          <mxGeometry x="380" y="628" width="40" height="30" as="geometry" />
        </mxCell>
        <mxCell id="3tetouzSUAAUPvZ9LY1E-36" value="&lt;b&gt;Yes&lt;/b&gt;" style="text;html=1;align=center;verticalAlign=middle;resizable=0;points=[];autosize=1;strokeColor=none;fillColor=none;" vertex="1" parent="1">
          <mxGeometry x="660" y="628" width="40" height="30" as="geometry" />
        </mxCell>
      </root>
    </mxGraphModel>
  </diagram>
</mxfile>
